<svg xmlns="http://www.w3.org/2000/svg" xmlns:xlink="http://www.w3.org/1999/xlink" id="Layer_1" width="888.472" height="209.946" x="0" y="0" enable-background="new 0 0 888.472 209.946" version="1.1" viewBox="0 0 888.472 209.946" xml:space="preserve"><rect width="1022" height="475" x="-844.835" y="-405.29" fill="#FFF" display="none"/><g><g><path fill="#F7F7F7" d="M257.532,189.819l30.18-171.279h93.12c15.131,0,26.352,3.785,33.663,11.35 c7.307,7.569,9.673,18.919,7.093,34.05c-1.378,7.569-3.526,13.716-6.448,18.443c-2.926,4.732-5.978,8.472-9.157,11.221 c-3.185,2.753-6.279,4.732-9.286,5.933c-3.011,1.205-5.288,1.979-6.836,2.322c2.749,0.516,5.845,1.548,9.286,3.095 c3.438,1.548,6.578,3.998,9.415,7.352c2.838,3.353,4.941,7.609,6.32,12.768c1.374,5.159,1.374,11.608,0,19.346 c-2.927,15.65-9.544,27.129-19.862,34.436c-10.318,7.311-23.389,10.963-39.209,10.963H257.532z M305.253,117.593l-7.48,42.82 h55.717c14.272,0,22.7-7.134,25.279-21.41c2.579-14.272-3.354-21.41-17.799-21.41H305.253z M317.376,47.946l-6.964,40.24h49.269 c7.049,0,12.551-1.588,16.509-4.772c3.953-3.18,6.617-8.295,7.996-15.348c1.201-7.049,0.343-12.164-2.579-15.348 c-2.927-3.18-7.912-4.772-14.962-4.772H317.376z"/><path fill="#F7F7F7" d="M473.433,189.819l24.764-141.357h-55.718l5.417-29.922h146.258l-5.416,29.922h-55.46l-24.763,141.357 H473.433z"/><path fill="#F7F7F7" d="M654.513,189.819c-28.548,0-48.41-6.92-59.587-20.765c-11.181-13.841-14.188-35.468-9.028-64.875 c5.159-29.06,15.819-50.599,31.986-64.617c16.162-14.014,38.346-21.023,66.551-21.023h51.59l-5.417,29.922h-44.109 c-9.976,0-18.572,0.991-25.795,2.966c-7.223,1.979-13.329,5.203-18.314,9.673c-4.99,4.474-9.072,10.233-12.253,17.283 c-3.184,7.053-5.635,15.65-7.352,25.795c-1.895,10.149-2.494,18.746-1.806,25.795c0.686,7.053,2.749,12.813,6.191,17.283 c3.438,4.474,8.424,7.698,14.961,9.673c6.533,1.979,14.788,2.967,24.763,2.967h45.142l-5.159,29.922H654.513z"/><path fill="#F7F7F7" d="M806.961,189.819c-28.548,0-48.41-6.92-59.587-20.765c-11.181-13.841-14.188-35.468-9.028-64.875 c5.159-29.06,15.819-50.599,31.986-64.617c16.162-14.014,38.346-21.023,66.551-21.023h51.59l-5.417,29.922h-44.109 c-9.976,0-18.572,0.991-25.795,2.966c-7.223,1.979-13.329,5.203-18.314,9.673c-4.99,4.474-9.072,10.233-12.253,17.283 c-3.184,7.053-5.635,15.65-7.352,25.795c-1.895,10.149-2.494,18.746-1.806,25.795c0.686,7.053,2.749,12.813,6.191,17.283 c3.438,4.474,8.424,7.698,14.961,9.673c6.533,1.979,14.788,2.967,24.763,2.967h45.142l-5.159,29.922H806.961z"/></g><path fill="#F42C27" d="M162.55,7.682C152.839,2.217,146.597,0,146.597,0s-13.375,7.284-20.537,11.654 c-8.07,4.924-21.088,14.609-21.088,14.609s-13.018-9.685-21.088-14.609C76.724,7.284,63.349,0,63.349,0s-6.242,2.217-15.952,7.682 c-9.711,5.465-16.103,12.03-16.103,12.03s24.176,19.362,36.893,30.653c12.717,11.291,36.787,33.686,36.787,33.686 s24.069-22.395,36.786-33.686c12.717-11.291,36.893-30.653,36.893-30.653S172.26,13.147,162.55,7.682z"/><path fill="#1AD346" d="M47.397,202.264c9.711,5.465,15.952,7.682,15.952,7.682s13.375-7.284,20.536-11.654 c8.07-4.924,21.088-14.609,21.088-14.609s13.017,9.685,21.088,14.609c7.162,4.37,20.537,11.654,20.537,11.654 s6.242-2.218,15.952-7.682c9.71-5.465,16.103-12.03,16.103-12.03s-24.176-19.362-36.893-30.653 c-12.717-11.291-36.786-33.686-36.786-33.686s-24.069,22.395-36.787,33.686c-12.717,11.291-36.893,30.653-36.893,30.653 S37.686,196.799,47.397,202.264z"/><path fill="#19A8F7" d="M202.264,162.622c5.465-9.711,7.682-15.952,7.682-15.952s-7.284-13.375-11.654-20.536 c-4.924-8.07-14.609-21.088-14.609-21.088s9.685-13.018,14.609-21.088c4.37-7.162,11.654-20.537,11.654-20.537 s-2.218-6.242-7.682-15.952c-5.465-9.711-12.03-16.103-12.03-16.103s-19.362,24.176-30.653,36.893 c-11.291,12.717-33.686,36.786-33.686,36.786s22.396,24.069,33.686,36.787c11.291,12.718,30.653,36.893,30.653,36.893 S196.799,172.332,202.264,162.622z"/><path fill="#F7F7F7" d="M7.682,47.469C2.218,57.18,0,63.421,0,63.421s7.284,13.375,11.654,20.537 c4.924,8.07,14.609,21.088,14.609,21.088s-9.685,13.017-14.609,21.088C7.284,133.295,0,146.669,0,146.669s2.218,6.242,7.682,15.952 c5.465,9.711,12.03,16.103,12.03,16.103s19.362-24.176,30.653-36.893c11.291-12.717,33.686-36.787,33.686-36.787 S61.656,80.976,50.365,68.259C39.074,55.541,19.712,31.365,19.712,31.365S13.148,37.759,7.682,47.469z"/></g></svg>