<svg xmlns="http://www.w3.org/2000/svg" xmlns:xlink="http://www.w3.org/1999/xlink" id="Layer_1" x="0" y="0" enable-background="new 0 0 237 111" version="1.1" viewBox="0 0 237 111" xml:space="preserve"><style type="text/css">.st0{clip-path:url(#SVGID_2_);fill:url(#SVGID_3_)}.st1{clip-path:url(#SVGID_5_);fill:url(#SVGID_6_)}.st2{clip-path:url(#SVGID_8_);fill:url(#SVGID_9_)}.st3{clip-path:url(#SVGID_34_)}.st4{clip-path:url(#SVGID_35_)}.st5{clip-path:url(#SVGID_36_)}.st6{clip-path:url(#SVGID_37_)}.st7{clip-path:url(#SVGID_38_)}.st8{clip-path:url(#SVGID_39_)}.st9{clip-path:url(#SVGID_40_)}.st10{clip-path:url(#SVGID_41_)}.st11{clip-path:url(#SVGID_42_)}.st12{clip-path:url(#SVGID_43_)}.st13{clip-path:url(#SVGID_44_)}.st14{clip-path:url(#SVGID_45_);fill:url(#SVGID_46_)}.st15{fill:url(#SVGID_47_)}.st16{fill:url(#SVGID_48_)}.st17{fill:url(#SVGID_49_)}</style><g><defs><path id="SVGID_1_" d="M111.7,41.4h4.4l23.4,37.4h0.1V41.4l3.8,0v42.5h-4.8l-23-36.7h-0.1v36.7l-3.8,0V41.4z"/></defs><clipPath id="SVGID_2_"><use overflow="visible" xlink:href="#SVGID_1_"/></clipPath><linearGradient id="SVGID_3_" x1="96.422" x2="96.422" y1="3.76" y2="133.903" gradientUnits="userSpaceOnUse"><stop offset="0" stop-color="#58BF00"/><stop offset=".228" stop-color="#58BF00"/><stop offset=".417" stop-color="#58BF00"/><stop offset=".605" stop-color="#29B800"/><stop offset=".777" stop-color="#00AE1D"/><stop offset=".994" stop-color="#00A62C"/></linearGradient><rect width="348.6" height="130.1" x="-77.9" y="4" class="st0"/></g><g><defs><path id="SVGID_4_" d="M156,83.9V41.4h25.3l-1.6,3.5h-19.8v15.3h20.6l-1.6,3.5h-19v16.7h22.3l-1.6,3.5H156z"/></defs><clipPath id="SVGID_5_"><use overflow="visible" xlink:href="#SVGID_4_"/></clipPath><linearGradient id="SVGID_6_" x1="96.422" x2="96.422" y1="3.76" y2="133.903" gradientUnits="userSpaceOnUse"><stop offset="0" stop-color="#58BF00"/><stop offset=".228" stop-color="#58BF00"/><stop offset=".417" stop-color="#58BF00"/><stop offset=".605" stop-color="#29B800"/><stop offset=".777" stop-color="#00AE1D"/><stop offset=".994" stop-color="#00A62C"/></linearGradient><rect width="348.6" height="130.1" x="-77.9" y="4" class="st1"/></g><g><defs><path id="SVGID_7_" d="M229,62.6c0,3.3-0.4,6.3-1.2,9c-0.8,2.7-2,5.1-3.6,7c-1.6,1.9-3.6,3.4-5.9,4.5c-2.4,1.1-5.1,1.6-8.1,1.6 c-3.1,0-5.8-0.5-8.1-1.6c-2.4-1.1-4.3-2.6-5.9-4.5c-1.6-1.9-2.8-4.3-3.7-7c-0.8-2.7-1.2-5.7-1.2-9c0-3.3,0.4-6.3,1.2-9 c0.8-2.7,2-5.1,3.7-7c1.6-1.9,3.6-3.4,5.9-4.5c2.4-1.1,5.1-1.6,8.1-1.6c3.1,0,5.8,0.5,8.1,1.6c2.4,1.1,4.3,2.6,5.9,4.5 c1.6,1.9,2.8,4.3,3.6,7C228.6,56.3,229,59.3,229,62.6z M195.2,62.6c0,2.3,0.3,4.6,0.8,6.8c0.5,2.2,1.4,4.2,2.6,6 c1.2,1.7,2.7,3.1,4.6,4.2c1.9,1.1,4.1,1.6,6.8,1.6c2.6,0,4.9-0.5,6.8-1.6c1.9-1.1,3.4-2.5,4.6-4.2c1.2-1.7,2.1-3.7,2.6-6 c0.5-2.2,0.8-4.5,0.8-6.8s-0.3-4.6-0.8-6.8c-0.6-2.2-1.4-4.2-2.6-6c-1.2-1.7-2.7-3.2-4.6-4.2c-1.9-1.1-4.1-1.6-6.8-1.6 c-2.7,0-4.9,0.5-6.8,1.6c-1.9,1.1-3.4,2.5-4.6,4.2c-1.2,1.7-2.1,3.7-2.6,6C195.5,58,195.2,60.3,195.2,62.6z"/></defs><clipPath id="SVGID_8_"><use overflow="visible" xlink:href="#SVGID_7_"/></clipPath><linearGradient id="SVGID_9_" x1="96.422" x2="96.422" y1="3.76" y2="133.903" gradientUnits="userSpaceOnUse"><stop offset="0" stop-color="#58BF00"/><stop offset=".228" stop-color="#58BF00"/><stop offset=".417" stop-color="#58BF00"/><stop offset=".605" stop-color="#29B800"/><stop offset=".777" stop-color="#00AE1D"/><stop offset=".994" stop-color="#00A62C"/></linearGradient><rect width="348.6" height="130.1" x="-77.9" y="4" class="st2"/></g><g><defs><path id="SVGID_10_" d="M114.4,92c-0.1-0.2-0.2-0.4-0.4-0.5c-0.2-0.1-0.4-0.2-0.6-0.2c-0.1,0-0.2,0-0.4,0.1 c-0.1,0-0.2,0.1-0.3,0.2c-0.1,0.1-0.2,0.2-0.2,0.3c-0.1,0.1-0.1,0.2-0.1,0.3c0,0.2,0.1,0.4,0.2,0.5c0.1,0.1,0.3,0.2,0.5,0.3 c0.2,0.1,0.4,0.2,0.7,0.3c0.2,0.1,0.5,0.2,0.7,0.3c0.2,0.1,0.4,0.3,0.5,0.5c0.1,0.2,0.2,0.5,0.2,0.8c0,0.3,0,0.5-0.1,0.7 c-0.1,0.2-0.2,0.4-0.4,0.6c-0.2,0.2-0.4,0.3-0.6,0.4c-0.2,0.1-0.5,0.1-0.7,0.1c-0.5,0-0.9-0.1-1.2-0.4c-0.4-0.3-0.6-0.6-0.7-1.1 l0.5-0.2c0.1,0.3,0.3,0.6,0.5,0.8c0.2,0.2,0.5,0.3,0.9,0.3c0.4,0,0.7-0.1,0.9-0.4c0.2-0.2,0.4-0.5,0.4-0.9c0-0.2,0-0.3-0.1-0.4 c-0.1-0.1-0.1-0.2-0.2-0.3c-0.1-0.1-0.2-0.2-0.4-0.2c-0.1-0.1-0.3-0.1-0.4-0.2c-0.2-0.1-0.4-0.2-0.6-0.2c-0.2-0.1-0.4-0.2-0.5-0.3 c-0.2-0.1-0.3-0.3-0.4-0.4c-0.1-0.2-0.1-0.4-0.1-0.6c0-0.2,0-0.4,0.1-0.6c0.1-0.2,0.2-0.3,0.3-0.5c0.1-0.1,0.3-0.2,0.5-0.3 c0.2-0.1,0.4-0.1,0.6-0.1c0.3,0,0.6,0.1,0.8,0.3c0.3,0.2,0.5,0.4,0.6,0.7L114.4,92z"/></defs><defs><path id="SVGID_11_" d="M119.2,91.7L119.2,91.7c0.2-0.3,0.3-0.5,0.6-0.6c0.3-0.1,0.5-0.2,0.8-0.2c0.4,0,0.7,0.1,1,0.3 c0.3,0.2,0.5,0.4,0.6,0.8c0.2-0.3,0.4-0.6,0.7-0.8c0.3-0.2,0.6-0.3,1-0.3c0.4,0,0.7,0.1,0.9,0.2c0.2,0.1,0.4,0.3,0.5,0.5 c0.1,0.2,0.2,0.4,0.3,0.7c0,0.3,0.1,0.6,0.1,0.9v3.6h-0.6V93c0-0.2,0-0.4,0-0.6c0-0.2-0.1-0.4-0.2-0.5c-0.1-0.2-0.2-0.3-0.4-0.4 c-0.2-0.1-0.4-0.1-0.6-0.1c-0.3,0-0.5,0.1-0.7,0.2c-0.2,0.1-0.3,0.3-0.4,0.5s-0.2,0.4-0.2,0.6c0,0.2-0.1,0.5-0.1,0.7v3.3h-0.6 v-3.5c0-0.2,0-0.4,0-0.7c0-0.2-0.1-0.4-0.2-0.6c-0.1-0.2-0.2-0.3-0.4-0.4c-0.2-0.1-0.4-0.2-0.7-0.2c-0.3,0-0.5,0.1-0.7,0.2 c-0.2,0.1-0.3,0.3-0.4,0.5s-0.2,0.4-0.2,0.7c0,0.3-0.1,0.5-0.1,0.7v3.1h-0.6V91h0.6V91.7z"/></defs><defs><path id="SVGID_12_" d="M134.6,96.6H134v-1h0c-0.1,0.2-0.2,0.3-0.4,0.5c-0.2,0.1-0.3,0.3-0.5,0.4c-0.2,0.1-0.4,0.2-0.6,0.2 c-0.2,0-0.4,0.1-0.6,0.1c-0.4,0-0.8-0.1-1.2-0.2s-0.6-0.4-0.9-0.6c-0.2-0.3-0.4-0.6-0.6-1s-0.2-0.8-0.2-1.2s0.1-0.8,0.2-1.2 s0.3-0.7,0.6-0.9c0.2-0.3,0.5-0.5,0.9-0.6c0.3-0.1,0.7-0.2,1.2-0.2c0.4,0,0.9,0.1,1.2,0.3c0.4,0.2,0.7,0.5,0.9,0.8h0v-1h0.6V96.6z M131.8,91.4c-0.3,0-0.6,0.1-0.9,0.2c-0.3,0.1-0.5,0.3-0.7,0.5c-0.2,0.2-0.3,0.5-0.4,0.8c-0.1,0.3-0.2,0.6-0.2,0.9 c0,0.3,0.1,0.6,0.2,0.9c0.1,0.3,0.3,0.6,0.4,0.8c0.2,0.2,0.4,0.4,0.7,0.5c0.3,0.1,0.6,0.2,0.9,0.2c0.4,0,0.7-0.1,1-0.2 c0.3-0.1,0.5-0.3,0.7-0.6c0.2-0.2,0.3-0.5,0.4-0.8s0.1-0.6,0.1-1c0-0.3-0.1-0.6-0.2-0.9c-0.1-0.3-0.3-0.5-0.5-0.7 s-0.4-0.4-0.7-0.5C132.4,91.4,132.1,91.4,131.8,91.4z"/></defs><defs><path id="SVGID_13_" d="M139,91.7L139,91.7c0.1-0.3,0.3-0.5,0.5-0.6c0.2-0.2,0.5-0.2,0.8-0.2c0.1,0,0.2,0,0.3,0 c0.1,0,0.2,0.1,0.3,0.1l-0.3,0.5c-0.1,0-0.1-0.1-0.2-0.1c-0.1,0-0.1,0-0.2,0c-0.3,0-0.5,0.1-0.7,0.3c-0.2,0.2-0.3,0.4-0.3,0.6 c-0.1,0.2-0.1,0.5-0.1,0.8c0,0.3,0,0.5,0,0.7v2.9h-0.6V91h0.6V91.7z"/></defs><defs><path id="SVGID_14_" d="M144.8,96.6h-0.6v-5.2h-0.6V91h0.6v-2h0.6v2h1v0.5h-1V96.6z"/></defs><defs><path id="SVGID_15_" d="M154.5,93.9c0,0.4,0,0.7,0.2,1c0.1,0.3,0.3,0.5,0.5,0.8c0.2,0.2,0.4,0.4,0.7,0.5c0.3,0.1,0.6,0.2,0.9,0.2 c0.4,0,0.8-0.1,1.2-0.4c0.3-0.2,0.6-0.5,0.8-0.9l0.5,0.3c-0.3,0.5-0.6,0.9-1,1.1c-0.4,0.3-0.9,0.4-1.5,0.4c-0.4,0-0.8-0.1-1.1-0.2 c-0.3-0.2-0.6-0.4-0.9-0.6c-0.2-0.3-0.4-0.6-0.6-0.9c-0.1-0.4-0.2-0.7-0.2-1.1c0-0.4,0.1-0.8,0.2-1.1c0.1-0.4,0.3-0.7,0.6-0.9 c0.2-0.3,0.5-0.5,0.9-0.6c0.3-0.2,0.7-0.2,1.1-0.2c0.4,0,0.8,0.1,1.1,0.2c0.3,0.2,0.6,0.4,0.9,0.7c0.2,0.3,0.4,0.6,0.5,1 s0.2,0.8,0.2,1.2H154.5z M158.9,93.3c0-0.3-0.1-0.5-0.2-0.7c-0.1-0.2-0.3-0.4-0.5-0.6c-0.2-0.2-0.4-0.3-0.7-0.4 c-0.2-0.1-0.5-0.2-0.8-0.2c-0.3,0-0.6,0.1-0.8,0.2c-0.3,0.1-0.5,0.2-0.7,0.4c-0.2,0.2-0.4,0.4-0.5,0.6c-0.1,0.2-0.2,0.5-0.2,0.8 H158.9z"/></defs><defs><path id="SVGID_16_" d="M167.2,92.3c-0.3-0.3-0.6-0.5-0.9-0.7c-0.3-0.2-0.7-0.2-1.1-0.2c-0.3,0-0.6,0.1-0.9,0.2 c-0.3,0.1-0.5,0.3-0.7,0.5c-0.2,0.2-0.4,0.5-0.5,0.8c-0.1,0.3-0.2,0.6-0.2,0.9c0,0.3,0.1,0.6,0.2,0.9c0.1,0.3,0.3,0.6,0.5,0.8 c0.2,0.2,0.5,0.4,0.7,0.5c0.3,0.1,0.6,0.2,0.9,0.2c0.4,0,0.8-0.1,1.2-0.3c0.4-0.2,0.7-0.4,0.9-0.7V96c-0.3,0.3-0.6,0.4-1,0.6 c-0.4,0.1-0.7,0.2-1.1,0.2c-0.4,0-0.8-0.1-1.2-0.2c-0.4-0.2-0.7-0.4-0.9-0.6c-0.3-0.3-0.5-0.6-0.6-0.9c-0.1-0.4-0.2-0.7-0.2-1.2 c0-0.4,0.1-0.8,0.2-1.2c0.1-0.4,0.4-0.7,0.6-0.9c0.3-0.3,0.6-0.5,0.9-0.6c0.4-0.2,0.7-0.2,1.2-0.2c0.4,0,0.7,0.1,1,0.2 c0.3,0.1,0.6,0.3,0.9,0.5V92.3z"/></defs><defs><path id="SVGID_17_" d="M173.1,90.8c0.4,0,0.8,0.1,1.2,0.2c0.4,0.2,0.7,0.4,0.9,0.6c0.3,0.3,0.5,0.6,0.6,0.9 c0.2,0.4,0.2,0.8,0.2,1.2c0,0.4-0.1,0.8-0.2,1.2c-0.2,0.4-0.4,0.7-0.6,0.9c-0.3,0.3-0.6,0.5-0.9,0.6c-0.4,0.2-0.8,0.2-1.2,0.2 c-0.4,0-0.8-0.1-1.1-0.2c-0.4-0.2-0.7-0.4-0.9-0.6c-0.3-0.3-0.5-0.6-0.6-0.9c-0.2-0.4-0.2-0.7-0.2-1.1c0-0.4,0.1-0.8,0.2-1.2 c0.2-0.4,0.4-0.7,0.6-0.9c0.3-0.3,0.6-0.5,0.9-0.6C172.3,90.9,172.7,90.8,173.1,90.8z M173,91.4c-0.3,0-0.6,0.1-0.9,0.2 c-0.3,0.1-0.5,0.3-0.7,0.5c-0.2,0.2-0.4,0.5-0.5,0.8c-0.1,0.3-0.2,0.6-0.2,0.9c0,0.3,0.1,0.6,0.2,0.9c0.1,0.3,0.3,0.6,0.5,0.8 c0.2,0.2,0.5,0.4,0.7,0.5c0.3,0.1,0.6,0.2,0.9,0.2c0.3,0,0.7-0.1,1-0.2c0.3-0.1,0.6-0.3,0.8-0.5s0.4-0.5,0.5-0.8 c0.1-0.3,0.2-0.6,0.2-1c0-0.4-0.1-0.7-0.2-1c-0.1-0.3-0.3-0.6-0.5-0.8s-0.5-0.4-0.8-0.5C173.7,91.4,173.4,91.4,173,91.4z"/></defs><defs><path id="SVGID_18_" d="M180,91.8L180,91.8c0.2-0.3,0.4-0.6,0.7-0.7c0.3-0.2,0.6-0.3,1-0.3c0.4,0,0.7,0.1,0.9,0.2s0.4,0.3,0.6,0.5 c0.1,0.2,0.2,0.5,0.3,0.7c0.1,0.3,0.1,0.6,0.1,1v3.4H183v-3.4c0-0.3,0-0.5,0-0.7c0-0.2-0.1-0.4-0.2-0.6c-0.1-0.2-0.2-0.3-0.4-0.4 c-0.2-0.1-0.4-0.1-0.7-0.1c-0.4,0-0.6,0.1-0.9,0.2c-0.2,0.2-0.4,0.3-0.5,0.6c-0.1,0.2-0.2,0.5-0.2,0.8c0,0.3-0.1,0.6-0.1,0.9v2.8 h-0.6V91h0.6V91.8z"/></defs><defs><path id="SVGID_19_" d="M189.8,90.8c0.4,0,0.8,0.1,1.2,0.2c0.4,0.2,0.7,0.4,0.9,0.6c0.3,0.3,0.5,0.6,0.6,0.9 c0.2,0.4,0.2,0.8,0.2,1.2c0,0.4-0.1,0.8-0.2,1.2c-0.2,0.4-0.4,0.7-0.6,0.9c-0.3,0.3-0.6,0.5-0.9,0.6c-0.4,0.2-0.8,0.2-1.2,0.2 c-0.4,0-0.8-0.1-1.1-0.2c-0.4-0.2-0.7-0.4-0.9-0.6c-0.3-0.3-0.5-0.6-0.6-0.9c-0.2-0.4-0.2-0.7-0.2-1.1c0-0.4,0.1-0.8,0.2-1.2 c0.2-0.4,0.4-0.7,0.6-0.9c0.3-0.3,0.6-0.5,0.9-0.6C189,90.9,189.4,90.8,189.8,90.8z M189.8,91.4c-0.3,0-0.6,0.1-0.9,0.2 c-0.3,0.1-0.5,0.3-0.7,0.5c-0.2,0.2-0.4,0.5-0.5,0.8c-0.1,0.3-0.2,0.6-0.2,0.9c0,0.3,0.1,0.6,0.2,0.9c0.1,0.3,0.3,0.6,0.5,0.8 c0.2,0.2,0.5,0.4,0.7,0.5c0.3,0.1,0.6,0.2,0.9,0.2c0.3,0,0.7-0.1,1-0.2c0.3-0.1,0.6-0.3,0.8-0.5s0.4-0.5,0.5-0.8 c0.1-0.3,0.2-0.6,0.2-1c0-0.4-0.1-0.7-0.2-1c-0.1-0.3-0.3-0.6-0.5-0.8s-0.5-0.4-0.8-0.5C190.5,91.4,190.1,91.4,189.8,91.4z"/></defs><defs><path id="SVGID_20_" d="M196.7,91.7L196.7,91.7c0.2-0.3,0.3-0.5,0.6-0.6c0.3-0.1,0.5-0.2,0.8-0.2c0.4,0,0.7,0.1,1,0.3 c0.3,0.2,0.5,0.4,0.6,0.8c0.2-0.3,0.4-0.6,0.7-0.8c0.3-0.2,0.6-0.3,1-0.3c0.4,0,0.7,0.1,0.9,0.2c0.2,0.1,0.4,0.3,0.5,0.5 c0.1,0.2,0.2,0.4,0.3,0.7c0,0.3,0.1,0.6,0.1,0.9v3.6h-0.6V93c0-0.2,0-0.4,0-0.6c0-0.2-0.1-0.4-0.2-0.5c-0.1-0.2-0.2-0.3-0.4-0.4 c-0.2-0.1-0.4-0.1-0.6-0.1c-0.3,0-0.5,0.1-0.7,0.2c-0.2,0.1-0.3,0.3-0.4,0.5s-0.2,0.4-0.2,0.6c0,0.2-0.1,0.5-0.1,0.7v3.3h-0.6 v-3.5c0-0.2,0-0.4,0-0.7c0-0.2-0.1-0.4-0.2-0.6c-0.1-0.2-0.2-0.3-0.4-0.4c-0.2-0.1-0.4-0.2-0.7-0.2c-0.3,0-0.5,0.1-0.7,0.2 c-0.2,0.1-0.3,0.3-0.4,0.5c-0.1,0.2-0.2,0.4-0.2,0.7c0,0.3-0.1,0.5-0.1,0.7v3.1h-0.6V91h0.6V91.7z"/></defs><defs><path id="SVGID_21_" d="M206,91h0.6l2.4,5.1l2.2-5.1h0.6l-3.8,9h-0.6l1.4-3.2L206,91z"/></defs><linearGradient id="SVGID_22_" x1="111.459" x2="115.239" y1="93.801" y2="93.801" gradientUnits="userSpaceOnUse"><stop offset="0" stop-color="#58BF00"/><stop offset=".228" stop-color="#58BF00"/><stop offset=".417" stop-color="#58BF00"/><stop offset=".605" stop-color="#29B800"/><stop offset=".777" stop-color="#00AE1D"/><stop offset=".994" stop-color="#00A62C"/></linearGradient><use fill="url(#SVGID_22_)" overflow="visible" xlink:href="#SVGID_10_"/><linearGradient id="SVGID_23_" x1="118.675" x2="125.683" y1="93.74" y2="93.74" gradientUnits="userSpaceOnUse"><stop offset="0" stop-color="#58BF00"/><stop offset=".228" stop-color="#58BF00"/><stop offset=".417" stop-color="#58BF00"/><stop offset=".605" stop-color="#29B800"/><stop offset=".777" stop-color="#00AE1D"/><stop offset=".994" stop-color="#00A62C"/></linearGradient><use fill="url(#SVGID_23_)" overflow="visible" xlink:href="#SVGID_11_"/><linearGradient id="SVGID_24_" x1="129.033" x2="134.568" y1="93.801" y2="93.801" gradientUnits="userSpaceOnUse"><stop offset="0" stop-color="#58BF00"/><stop offset=".228" stop-color="#58BF00"/><stop offset=".417" stop-color="#58BF00"/><stop offset=".605" stop-color="#29B800"/><stop offset=".777" stop-color="#00AE1D"/><stop offset=".994" stop-color="#00A62C"/></linearGradient><use fill="url(#SVGID_24_)" overflow="visible" xlink:href="#SVGID_12_"/><linearGradient id="SVGID_25_" x1="138.471" x2="140.876" y1="93.74" y2="93.74" gradientUnits="userSpaceOnUse"><stop offset="0" stop-color="#58BF00"/><stop offset=".228" stop-color="#58BF00"/><stop offset=".417" stop-color="#58BF00"/><stop offset=".605" stop-color="#29B800"/><stop offset=".777" stop-color="#00AE1D"/><stop offset=".994" stop-color="#00A62C"/></linearGradient><use fill="url(#SVGID_25_)" overflow="visible" xlink:href="#SVGID_13_"/><linearGradient id="SVGID_26_" x1="143.576" x2="145.748" y1="92.789" y2="92.789" gradientUnits="userSpaceOnUse"><stop offset="0" stop-color="#58BF00"/><stop offset=".228" stop-color="#58BF00"/><stop offset=".417" stop-color="#58BF00"/><stop offset=".605" stop-color="#29B800"/><stop offset=".777" stop-color="#00AE1D"/><stop offset=".994" stop-color="#00A62C"/></linearGradient><use fill="url(#SVGID_26_)" overflow="visible" xlink:href="#SVGID_14_"/><linearGradient id="SVGID_27_" x1="153.983" x2="159.456" y1="93.801" y2="93.801" gradientUnits="userSpaceOnUse"><stop offset="0" stop-color="#58BF00"/><stop offset=".228" stop-color="#58BF00"/><stop offset=".417" stop-color="#58BF00"/><stop offset=".605" stop-color="#29B800"/><stop offset=".777" stop-color="#00AE1D"/><stop offset=".994" stop-color="#00A62C"/></linearGradient><use fill="url(#SVGID_27_)" overflow="visible" xlink:href="#SVGID_15_"/><linearGradient id="SVGID_28_" x1="162.255" x2="167.225" y1="93.801" y2="93.801" gradientUnits="userSpaceOnUse"><stop offset="0" stop-color="#58BF00"/><stop offset=".228" stop-color="#58BF00"/><stop offset=".417" stop-color="#58BF00"/><stop offset=".605" stop-color="#29B800"/><stop offset=".777" stop-color="#00AE1D"/><stop offset=".994" stop-color="#00A62C"/></linearGradient><use fill="url(#SVGID_28_)" overflow="visible" xlink:href="#SVGID_16_"/><linearGradient id="SVGID_29_" x1="170.121" x2="176.048" y1="93.801" y2="93.801" gradientUnits="userSpaceOnUse"><stop offset="0" stop-color="#58BF00"/><stop offset=".228" stop-color="#58BF00"/><stop offset=".417" stop-color="#58BF00"/><stop offset=".605" stop-color="#29B800"/><stop offset=".777" stop-color="#00AE1D"/><stop offset=".994" stop-color="#00A62C"/></linearGradient><use fill="url(#SVGID_29_)" overflow="visible" xlink:href="#SVGID_17_"/><linearGradient id="SVGID_30_" x1="179.399" x2="183.522" y1="93.74" y2="93.74" gradientUnits="userSpaceOnUse"><stop offset="0" stop-color="#58BF00"/><stop offset=".228" stop-color="#58BF00"/><stop offset=".417" stop-color="#58BF00"/><stop offset=".605" stop-color="#29B800"/><stop offset=".777" stop-color="#00AE1D"/><stop offset=".994" stop-color="#00A62C"/></linearGradient><use fill="url(#SVGID_30_)" overflow="visible" xlink:href="#SVGID_18_"/><linearGradient id="SVGID_31_" x1="186.873" x2="192.8" y1="93.801" y2="93.801" gradientUnits="userSpaceOnUse"><stop offset="0" stop-color="#58BF00"/><stop offset=".228" stop-color="#58BF00"/><stop offset=".417" stop-color="#58BF00"/><stop offset=".605" stop-color="#29B800"/><stop offset=".777" stop-color="#00AE1D"/><stop offset=".994" stop-color="#00A62C"/></linearGradient><use fill="url(#SVGID_31_)" overflow="visible" xlink:href="#SVGID_19_"/><linearGradient id="SVGID_32_" x1="196.15" x2="203.158" y1="93.74" y2="93.74" gradientUnits="userSpaceOnUse"><stop offset="0" stop-color="#58BF00"/><stop offset=".228" stop-color="#58BF00"/><stop offset=".417" stop-color="#58BF00"/><stop offset=".605" stop-color="#29B800"/><stop offset=".777" stop-color="#00AE1D"/><stop offset=".994" stop-color="#00A62C"/></linearGradient><use fill="url(#SVGID_32_)" overflow="visible" xlink:href="#SVGID_20_"/><linearGradient id="SVGID_33_" x1="206.03" x2="211.761" y1="95.458" y2="95.458" gradientUnits="userSpaceOnUse"><stop offset="0" stop-color="#58BF00"/><stop offset=".228" stop-color="#58BF00"/><stop offset=".417" stop-color="#58BF00"/><stop offset=".605" stop-color="#29B800"/><stop offset=".777" stop-color="#00AE1D"/><stop offset=".994" stop-color="#00A62C"/></linearGradient><use fill="url(#SVGID_33_)" overflow="visible" xlink:href="#SVGID_21_"/><clipPath id="SVGID_34_"><use overflow="visible" xlink:href="#SVGID_10_"/></clipPath><clipPath id="SVGID_35_" class="st3"><use overflow="visible" xlink:href="#SVGID_11_"/></clipPath><clipPath id="SVGID_36_" class="st4"><use overflow="visible" xlink:href="#SVGID_12_"/></clipPath><clipPath id="SVGID_37_" class="st5"><use overflow="visible" xlink:href="#SVGID_13_"/></clipPath><clipPath id="SVGID_38_" class="st6"><use overflow="visible" xlink:href="#SVGID_14_"/></clipPath><clipPath id="SVGID_39_" class="st7"><use overflow="visible" xlink:href="#SVGID_15_"/></clipPath><clipPath id="SVGID_40_" class="st8"><use overflow="visible" xlink:href="#SVGID_16_"/></clipPath><clipPath id="SVGID_41_" class="st9"><use overflow="visible" xlink:href="#SVGID_17_"/></clipPath><clipPath id="SVGID_42_" class="st10"><use overflow="visible" xlink:href="#SVGID_18_"/></clipPath><clipPath id="SVGID_43_" class="st11"><use overflow="visible" xlink:href="#SVGID_19_"/></clipPath><clipPath id="SVGID_44_" class="st12"><use overflow="visible" xlink:href="#SVGID_20_"/></clipPath><clipPath id="SVGID_45_" class="st13"><use overflow="visible" xlink:href="#SVGID_21_"/></clipPath><linearGradient id="SVGID_46_" x1="96.422" x2="96.422" y1="3.76" y2="133.903" gradientUnits="userSpaceOnUse"><stop offset="0" stop-color="#58BF00"/><stop offset=".228" stop-color="#58BF00"/><stop offset=".417" stop-color="#58BF00"/><stop offset=".605" stop-color="#29B800"/><stop offset=".777" stop-color="#00AE1D"/><stop offset=".994" stop-color="#00A62C"/></linearGradient><rect width="348.6" height="130.1" x="-77.9" y="4" class="st14"/></g><linearGradient id="SVGID_47_" x1="14.363" x2="196.213" y1="94.75" y2="-7.671" gradientUnits="userSpaceOnUse"><stop offset="0" stop-color="#BEEB00"/><stop offset=".228" stop-color="#58BF00"/><stop offset=".417" stop-color="#58BF00"/><stop offset=".605" stop-color="#29B800"/><stop offset=".777" stop-color="#00AE1D"/><stop offset=".994" stop-color="#00A62C"/></linearGradient><polygon points="88.8 25.5 88.8 86.8 56.5 71.6 56.5 37.1" class="st15"/><linearGradient id="SVGID_48_" x1="4.398" x2="186.248" y1="77.058" y2="-25.364" gradientUnits="userSpaceOnUse"><stop offset="0" stop-color="#BEEB00"/><stop offset=".228" stop-color="#58BF00"/><stop offset=".417" stop-color="#58BF00"/><stop offset=".605" stop-color="#29B800"/><stop offset=".777" stop-color="#00AE1D"/><stop offset=".994" stop-color="#00A62C"/></linearGradient><polygon points="10.4 87.9 41.9 102.7 41.9 41.8 10.4 26.9" class="st16"/><linearGradient id="SVGID_49_" x1="-6.925" x2="174.925" y1="56.953" y2="-45.468" gradientUnits="userSpaceOnUse"><stop offset="0" stop-color="#BEEB00"/><stop offset=".228" stop-color="#58BF00"/><stop offset=".417" stop-color="#58BF00"/><stop offset=".605" stop-color="#29B800"/><stop offset=".777" stop-color="#00AE1D"/><stop offset=".994" stop-color="#00A62C"/></linearGradient><polygon points="87.5 24.3 88 24.1 88.3 24 57.3 9.4 57 9.5 56.2 9.8 55.8 9.9 11.7 25.8 42.7 40.4 55.8 35.7 56.5 35.4" class="st17"/></svg>